<?xml version="1.0" encoding="UTF-8"?>
<svg id="mekanism-logo" xmlns="http://www.w3.org/2000/svg" xmlns:xlink="http://www.w3.org/1999/xlink" viewBox="0 0 523.96 464.71">
  <defs>
    <style>
      .cls-1 {
        fill: url(#transition_58);
      }

      .cls-2 {
        fill: url(#transition_24);
      }

      .cls-3 {
        fill: url(#transition_57);
      }

      .cls-4 {
        fill: url(#transition_61);
      }

      .cls-5 {
        fill: url(#transition_27);
      }
    </style>
    <linearGradient id="transition_57" x1="182.2" y1="-10.1" x2="248.51" y2="88.22" gradientUnits="userSpaceOnUse">
      <stop offset="0" stop-color="#797f7d"/>
      <stop offset=".98" stop-color="#639081"/>
    </linearGradient>
    <linearGradient id="transition_61" x1="397.68" y1="255.53" x2="523.96" y2="255.53" gradientUnits="userSpaceOnUse">
      <stop offset=".03" stop-color="#639081"/>
      <stop offset=".34" stop-color="#797f7d"/>
    </linearGradient>
    <linearGradient id="transition_58" x1="265.29" y1="464.71" x2="265.29" y2="240.95" gradientUnits="userSpaceOnUse">
      <stop offset=".4" stop-color="#797f7d"/>
      <stop offset=".98" stop-color="#639081"/>
    </linearGradient>
    <linearGradient id="transition_27" x1="23.74" y1="306.25" x2="432.21" y2="-1.56" gradientUnits="userSpaceOnUse">
      <stop offset="0" stop-color="#639081"/>
      <stop offset=".49" stop-color="#5cb585"/>
      <stop offset=".6" stop-color="#5dad84"/>
      <stop offset=".81" stop-color="#639081"/>
    </linearGradient>
    <linearGradient id="transition_24" x1="379.3" y1="364.94" x2="444.06" y2="364.94" gradientUnits="userSpaceOnUse">
      <stop offset="0" stop-color="#639081"/>
      <stop offset=".49" stop-color="#5cb585"/>
      <stop offset="1" stop-color="#639081"/>
    </linearGradient>
  </defs>
  <path id="part5" class="cls-3" d="m254.29,49.71c-29.58,0-54.34-20.55-60.83-48.15-28.63,7.12-55.43,18.86-79.56,34.41,6.86,10.03,10.88,22.17,10.88,35.24,0,8.94-1.89,17.44-5.28,25.13,42.66-.91,84.11-3.13,108.3-7.87,47.06-9.22,89.73-42.16,97.23-86.16-3.17-.83-6.36-1.6-9.57-2.31-5.9,28.38-31.05,49.71-61.18,49.71Z"/>
  <path id="part4" class="cls-4" d="m474.79,257.21c0-29.07,19.85-53.5,46.74-60.49-7.2-28.2-18.91-54.6-34.31-78.39-9.56,5.94-20.84,9.38-32.93,9.38-14.93,0-28.63-5.24-39.38-13.98l-17.23,61.53c17.11,25.41,27.11,56.01,27.11,88.95,0,18.16-3.04,35.6-8.63,51.86,10.52,1.4,23.08,5.68,26.41,17.89,3.4,12.46,4.23,38.07,4.31,57.94,5.23-1.42,10.73-2.19,16.41-2.19,10.85,0,21.05,2.77,29.94,7.63,14.21-24.17,24.72-50.79,30.73-79.07-28.11-6.11-49.17-31.12-49.17-61.06Z"/>
  <path id="part3" class="cls-1" d="m357.79,318.71l-62.57-67.57c-9.2,26.7-34.89,56.12-34.89,56.12l-85.7-66.3-1.85,5.76,83.42,79.45-48.42,138.55,150-146Z"/>
  <path id="part2" class="cls-5" d="m212.94,111.62l-39.54,123.33,85.46,66.12s24.9-28.51,34.45-54.87l-12.18-13.15,50.86-112.67c25.04,12.33,46.37,31.04,61.89,54l17.2-61.44c-14.01-11.46-22.95-28.88-22.95-48.39,0-11.28,3-21.85,8.23-30.99-21.28-12.71-44.49-22.54-69.08-28.93-7.17,44.35-50.03,77.59-97.34,86.86-24.21,4.74-65.7,6.96-108.39,7.87-9.83,21.64-31.61,36.7-56.92,36.7-12.26,0-23.68-3.54-33.33-9.64-14.48,24.38-25.19,51.27-31.29,79.87,28.59,5.74,50.13,30.99,50.13,61.27s-20.32,54.06-47.68,60.72c7.02,27.38,18.29,53.06,33.06,76.29,9.61-6.02,20.95-9.51,33.12-9.51,17.24,0,32.85,6.98,44.15,18.27l36.53-36.53c-29.13-28.9-47.18-68.96-47.18-113.24,0-71.11,46.54-131.34,110.81-151.92Z"/>
  <path id="part1" class="cls-2" d="m439.76,336.55c-3.32-12.16-15.8-16.46-26.3-17.87-7.39,21.19-19.14,40.35-34.16,56.4l36.12,36.12c7.7-8.13,17.55-14.19,28.65-17.28-.1-19.79-.94-45.03-4.31-57.38Z"/>
</svg>