<?xml version="1.0" encoding="UTF-8" standalone="no"?>
<!-- Created with Inkscape (http://www.inkscape.org/) -->

<svg
   version="1.1"
   id="svg1"
   width="805.60797"
   height="461.06799"
   viewBox="0 0 805.60797 461.06799"
   sodipodi:docname="536c4822-aacd-47ca-8484-51114e96249d.ai"
   xmlns:inkscape="http://www.inkscape.org/namespaces/inkscape"
   xmlns:sodipodi="http://sodipodi.sourceforge.net/DTD/sodipodi-0.dtd"
   xmlns="http://www.w3.org/2000/svg"
   xmlns:svg="http://www.w3.org/2000/svg">
  <defs
     id="defs1">
    <clipPath
       clipPathUnits="userSpaceOnUse"
       id="clipPath2">
      <path
         d="M 0,345.801 H 604.206 V 0 H 0 Z"
         transform="translate(-212.9857,-327.82351)"
         id="path2" />
    </clipPath>
    <clipPath
       clipPathUnits="userSpaceOnUse"
       id="clipPath4">
      <path
         d="M 0,345.801 H 604.206 V 0 H 0 Z"
         transform="translate(-491.46041,-323.93291)"
         id="path4" />
    </clipPath>
    <clipPath
       clipPathUnits="userSpaceOnUse"
       id="clipPath6">
      <path
         d="M 0,345.801 H 604.206 V 0 H 0 Z"
         transform="translate(-490.93201,-137.2884)"
         id="path6" />
    </clipPath>
    <clipPath
       clipPathUnits="userSpaceOnUse"
       id="clipPath8">
      <path
         d="M 0,345.801 H 604.206 V 0 H 0 Z"
         transform="translate(-528.82801,-120.51891)"
         id="path8" />
    </clipPath>
    <clipPath
       clipPathUnits="userSpaceOnUse"
       id="clipPath10">
      <path
         d="M 0,345.801 H 604.206 V 0 H 0 Z"
         transform="translate(-589.43441,-121.4437)"
         id="path10" />
    </clipPath>
    <clipPath
       clipPathUnits="userSpaceOnUse"
       id="clipPath12">
      <path
         d="M 0,345.801 H 604.206 V 0 H 0 Z"
         transform="translate(-427.15621,-111.93681)"
         id="path12" />
    </clipPath>
    <clipPath
       clipPathUnits="userSpaceOnUse"
       id="clipPath14">
      <path
         d="M 0,345.801 H 604.206 V 0 H 0 Z"
         transform="translate(-356.08541,-90.248402)"
         id="path14" />
    </clipPath>
    <clipPath
       clipPathUnits="userSpaceOnUse"
       id="clipPath16">
      <path
         d="M 0,345.801 H 604.206 V 0 H 0 Z"
         transform="translate(-53.612701,-290.85191)"
         id="path16" />
    </clipPath>
    <clipPath
       clipPathUnits="userSpaceOnUse"
       id="clipPath18">
      <path
         d="M 0,345.801 H 604.206 V 0 H 0 Z"
         transform="translate(-47.802601,-296.92561)"
         id="path18" />
    </clipPath>
    <clipPath
       clipPathUnits="userSpaceOnUse"
       id="clipPath20">
      <path
         d="M 0,345.801 H 604.206 V 0 H 0 Z"
         transform="translate(-139.52631,-126.8851)"
         id="path20" />
    </clipPath>
    <clipPath
       clipPathUnits="userSpaceOnUse"
       id="clipPath22">
      <path
         d="M 0,345.801 H 604.206 V 0 H 0 Z"
         transform="translate(-136.0063,-134.11941)"
         id="path22" />
    </clipPath>
    <clipPath
       clipPathUnits="userSpaceOnUse"
       id="clipPath24">
      <path
         d="M 0,345.801 H 604.206 V 0 H 0 Z"
         transform="translate(-200.03211,-155.9056)"
         id="path24" />
    </clipPath>
    <clipPath
       clipPathUnits="userSpaceOnUse"
       id="clipPath26">
      <path
         d="M 0,345.801 H 604.206 V 0 H 0 Z"
         transform="translate(-195.3583,-162.24441)"
         id="path26" />
    </clipPath>
    <clipPath
       clipPathUnits="userSpaceOnUse"
       id="clipPath28">
      <path
         d="M 0,345.801 H 604.206 V 0 H 0 Z"
         transform="translate(-292.43551,-105.5208)"
         id="path28" />
    </clipPath>
    <clipPath
       clipPathUnits="userSpaceOnUse"
       id="clipPath30">
      <path
         d="M 0,345.801 H 604.206 V 0 H 0 Z"
         transform="translate(-288.05121,-110.35191)"
         id="path30" />
    </clipPath>
    <clipPath
       clipPathUnits="userSpaceOnUse"
       id="clipPath32">
      <path
         d="M 0,345.801 H 604.206 V 0 H 0 Z"
         transform="translate(-401.54041,-147.85191)"
         id="path32" />
    </clipPath>
    <clipPath
       clipPathUnits="userSpaceOnUse"
       id="clipPath34">
      <path
         d="M 0,345.801 H 604.206 V 0 H 0 Z"
         transform="translate(-397.97551,-153.13311)"
         id="path34" />
    </clipPath>
    <clipPath
       clipPathUnits="userSpaceOnUse"
       id="clipPath36">
      <path
         d="M 0,345.801 H 604.206 V 0 H 0 Z"
         transform="translate(-427.81391,-119.4876)"
         id="path36" />
    </clipPath>
    <clipPath
       clipPathUnits="userSpaceOnUse"
       id="clipPath38">
      <path
         d="M 0,345.801 H 604.206 V 0 H 0 Z"
         transform="translate(-424.34761,-115.5267)"
         id="path38" />
    </clipPath>
    <clipPath
       clipPathUnits="userSpaceOnUse"
       id="clipPath40">
      <path
         d="M 0,345.801 H 604.206 V 0 H 0 Z"
         transform="translate(-422.43591,-126.1966)"
         id="path40" />
    </clipPath>
    <clipPath
       clipPathUnits="userSpaceOnUse"
       id="clipPath42">
      <path
         d="M 0,345.801 H 604.206 V 0 H 0 Z"
         transform="translate(-418.96961,-122.2357)"
         id="path42" />
    </clipPath>
    <clipPath
       clipPathUnits="userSpaceOnUse"
       id="clipPath44">
      <path
         d="M 0,345.801 H 604.206 V 0 H 0 Z"
         transform="translate(-406.81731,-80.369402)"
         id="path44" />
    </clipPath>
    <clipPath
       clipPathUnits="userSpaceOnUse"
       id="clipPath46">
      <path
         d="M 0,345.801 H 604.206 V 0 H 0 Z"
         transform="translate(-546.57361,-150.7308)"
         id="path46" />
    </clipPath>
    <clipPath
       clipPathUnits="userSpaceOnUse"
       id="clipPath48">
      <path
         d="M 0,345.801 H 604.206 V 0 H 0 Z"
         transform="translate(-541.63561,-156.4339)"
         id="path48" />
    </clipPath>
    <clipPath
       clipPathUnits="userSpaceOnUse"
       id="clipPath50">
      <path
         d="M 0,345.801 H 604.206 V 0 H 0 Z"
         transform="translate(-423.58391,-115.64091)"
         id="path50" />
    </clipPath>
  </defs>
  <sodipodi:namedview
     id="namedview1"
     pagecolor="#ffffff"
     bordercolor="#000000"
     borderopacity="0.25"
     inkscape:showpageshadow="2"
     inkscape:pageopacity="0.0"
     inkscape:pagecheckerboard="0"
     inkscape:deskcolor="#d1d1d1">
    <inkscape:page
       x="0"
       y="0"
       inkscape:label="1"
       id="page1"
       width="805.60797"
       height="461.06799"
       margin="0"
       bleed="0" />
  </sodipodi:namedview>
  <g
     id="layer-MC0"
     inkscape:groupmode="layer"
     inkscape:label="圖層 1">
    <path
       id="path1"
       d="m 0,0 c 0,0 44.762,25.352 101.408,15.845 0,0 33.274,-8.715 53.476,-38.424 0,0 -44.761,-9.507 -77.442,4.357 C 44.762,-4.357 36.443,0.792 0,0"
       style="fill:#89d1b2;fill-opacity:1;fill-rule:nonzero;stroke:none"
       transform="matrix(1.3333333,0,0,-1.3333333,283.98093,23.97)"
       clip-path="url(#clipPath2)" />
    <path
       id="path3"
       d="m 0,0 c 0,0 -107.349,13.001 -152.111,-74.542 0,0 -26.144,-52.684 -12.28,-102.199 0,0 24.163,29.709 69.718,18.023 0,0 12.675,-7.131 11.883,-25.352 0,0 -2.178,-17.429 -27.729,-4.357 0,0 -18.815,11.289 -16.636,-10.893 0,0 1.584,-5.943 26.936,-37.038 0,0 -3.763,37.433 22.579,43.177 26.342,5.744 50.307,-32.284 50.307,-32.284 0,0 9.507,30.502 1.189,47.535 -8.319,17.034 2.971,21.193 2.971,21.193 0,0 49.515,6.139 69.915,-0.991 20.401,-7.13 33.671,-6.139 33.671,-6.139 0,0 21.588,-1.783 26.738,-5.348 0,0 13.865,96.852 -40.603,135.474 0,0 8.913,-69.52 -60.606,-63.974 C -63.578,-92.169 -34.463,-1.513 0,0"
       style="fill:#ffe253;fill-opacity:1;fill-rule:nonzero;stroke:none"
       transform="matrix(1.3333333,0,0,-1.3333333,655.28053,29.157467)"
       clip-path="url(#clipPath4)" />
    <path
       id="path5"
       d="M 0,0 V -12.147 H 19.014 C 19.014,-12.147 4.886,-0.265 0,0"
       style="fill:#ffe253;fill-opacity:1;fill-rule:nonzero;stroke:none"
       transform="matrix(1.3333333,0,0,-1.3333333,654.576,278.0168)"
       clip-path="url(#clipPath6)" />
    <path
       id="path7"
       d="m 0,0 h 31.426 v -47.931 c 0,0 -39.085,-33.934 -78.169,-33.406 -39.084,0.528 -63.643,8.45 -70.905,11.224 0,0 -2.246,1.055 -2.509,10.959 0,0 -0.925,-5.282 16.241,-8.979 0,0 19.674,-4.357 37.763,13.336 0,0 -0.66,-15.581 15.977,-17.693 0,0 8.319,-1.585 12.28,9.903 v 42.253 c 0,0 12.412,-9.375 27.597,-9.375 15.184,0 16.373,9.772 16.373,9.772 0,0 2.244,14.391 -6.074,19.937"
       style="fill:#ffe253;fill-opacity:1;fill-rule:nonzero;stroke:none"
       transform="matrix(1.3333333,0,0,-1.3333333,705.104,300.37613)"
       clip-path="url(#clipPath8)" />
    <path
       id="path9"
       d="M 0,0 C 0,0 -1.188,-13.469 -8.45,-20.862 V 0 Z"
       style="fill:#ffe253;fill-opacity:1;fill-rule:nonzero;stroke:none"
       transform="matrix(1.3333333,0,0,-1.3333333,785.91253,299.14307)"
       clip-path="url(#clipPath10)" />
    <path
       id="path11"
       d="m 0,0 c 0,0 -10.695,-2.113 -15.977,-11.355 -5.281,-9.244 1.188,-13.007 1.188,-13.007 0,0 6.867,-7.328 15.581,0 8.715,7.328 10.036,13.007 10.036,13.007 0,0 1.716,11.619 -10.828,11.355"
       style="fill:#ffe253;fill-opacity:1;fill-rule:nonzero;stroke:none"
       transform="matrix(1.3333333,0,0,-1.3333333,569.5416,311.81893)"
       clip-path="url(#clipPath12)" />
    <path
       id="path13"
       d="M 0,0 C 0,0 8.121,-16.043 23.47,-24.064 L 22.183,-18.617 3.268,-0.693 Z"
       style="fill:#ffe253;fill-opacity:1;fill-rule:nonzero;stroke:none"
       transform="matrix(1.3333333,0,0,-1.3333333,474.78053,340.7368)"
       clip-path="url(#clipPath14)" />
    <path
       id="path15"
       d="m 0,0 c 0,0 -6.866,16.637 -27.729,17.166 -20.862,0.527 -20.07,-25.088 -20.07,-25.088 0,0 0,-12.677 41.989,-44.366 0,0 13.204,-9.771 22.447,-30.106 9.243,-20.334 13.468,-22.975 13.468,-22.975 0,0 -13.204,-136.002 1.321,-149.735 14.524,-13.731 19.542,-6.337 19.542,-6.337 0,0 7.13,6.074 7.922,15.581 0,0 1.585,3.169 -1.848,13.468 -3.434,10.299 -4.49,74.207 -4.49,74.207 0,0 -2.905,9.243 -5.81,14.789 -2.905,5.545 1.057,39.083 3.169,46.214 2.113,7.13 40.141,44.894 40.141,44.894 0,0 5.017,5.282 0,10.299 -5.018,5.017 -8.187,9.507 -8.187,9.507 0,0 -6.602,6.074 -13.732,-2.641 0,0 -1.849,-7.658 -1.32,-10.563 0.528,-2.905 -9.243,-14.524 -9.243,-14.524 0,0 -9.771,-13.205 -14.525,-33.803 0,0 -3.697,-8.451 -8.45,1.848 0,0 -26.144,51.761 -30.898,68.926 0,0 -2.905,10.563 -3.697,23.239"
       style="fill:#fde545;fill-opacity:1;fill-rule:nonzero;stroke:none"
       transform="matrix(1.3333333,0,0,-1.3333333,71.4836,73.265467)"
       clip-path="url(#clipPath16)" />
    <path
       id="path17"
       d="m 0,0 c 0,0 -6.866,16.637 -27.729,17.166 -20.862,0.528 -20.07,-25.088 -20.07,-25.088 0,0 0,-12.676 41.989,-44.366 0,0 13.205,-9.771 22.447,-30.106 9.243,-20.334 13.468,-22.975 13.468,-22.975 0,0 -13.204,-136.002 1.321,-149.734 14.524,-13.732 19.542,-6.338 19.542,-6.338 0,0 7.13,6.074 7.923,15.581 0,0 1.584,3.169 -1.849,13.468 -3.433,10.3 -4.49,74.207 -4.49,74.207 0,0 -2.905,9.243 -5.809,14.789 -2.905,5.545 1.056,39.084 3.169,46.214 2.112,7.13 40.14,44.894 40.14,44.894 0,0 5.018,5.282 0,10.299 -5.017,5.018 -8.186,9.507 -8.186,9.507 0,0 -6.602,6.074 -13.733,-2.641 0,0 -1.848,-7.658 -1.32,-10.563 0.528,-2.905 -9.243,-14.524 -9.243,-14.524 0,0 -9.771,-13.205 -14.525,-33.803 0,0 -3.697,-8.45 -8.45,1.848 0,0 -26.144,51.761 -30.898,68.926 0,0 -2.905,10.563 -3.697,23.239"
       style="fill:#f7975a;fill-opacity:1;fill-rule:nonzero;stroke:none"
       transform="matrix(1.3333333,0,0,-1.3333333,63.7368,65.1672)"
       clip-path="url(#clipPath18)" />
    <path
       id="path19"
       d="m 0,0 c 0,0 -13.997,0.132 -17.297,-11.355 -3.302,-11.488 0,-32.35 0,-32.35 0,0 4.225,-12.28 13.072,-16.77 8.847,-4.489 20.202,3.169 20.202,3.169 0,0 21.523,12.676 25.88,28.653 4.357,15.977 -7.394,23.504 -7.394,23.504 0,0 -4.622,4.225 -13.997,5.149 0,0 5.018,-3.037 5.282,-8.979 0.264,-5.942 0,-20.862 -5.942,-28.388 -5.942,-7.527 -9.111,-11.488 -14.92,-12.149 -5.81,-0.66 -10.96,4.886 -10.96,4.886 0,0 -8.45,6.734 -7.526,24.031 0,0 0.264,12.016 13.6,20.599"
       style="fill:#fde545;fill-opacity:1;fill-rule:nonzero;stroke:none"
       transform="matrix(1.3333333,0,0,-1.3333333,186.03507,291.88787)"
       clip-path="url(#clipPath20)" />
    <path
       id="path21"
       d="m 0,0 c 0,0 -13.997,0.132 -17.297,-11.355 -3.302,-11.488 0,-32.351 0,-32.351 0,0 4.225,-12.279 13.071,-16.769 8.847,-4.489 20.203,3.169 20.203,3.169 0,0 21.523,12.676 25.88,28.653 4.357,15.977 -7.395,23.504 -7.395,23.504 0,0 -4.621,4.224 -13.996,5.149 0,0 5.018,-3.037 5.282,-8.979 0.264,-5.942 0,-20.863 -5.942,-28.389 -5.942,-7.527 -9.111,-11.487 -14.921,-12.148 -5.809,-0.66 -10.959,4.886 -10.959,4.886 0,0 -8.45,6.734 -7.527,24.031 0,0 0.265,12.016 13.601,20.599"
       style="fill:#f7975a;fill-opacity:1;fill-rule:nonzero;stroke:none"
       transform="matrix(1.3333333,0,0,-1.3333333,181.34173,282.24213)"
       clip-path="url(#clipPath22)" />
    <path
       id="path23"
       d="m 0,0 c 0,0 -14.723,-1.584 -13.006,-7.328 1.716,-5.743 11.223,-7.328 11.223,-7.328 0,0 25.748,-6.932 41.594,-9.904 15.844,-2.97 7.328,-9.308 7.328,-9.308 0,0 -39.613,-38.424 -62.786,-52.882 -23.173,-14.459 33.67,-17.43 33.67,-17.43 0,0 38.227,0.594 49.318,-2.773 11.092,-3.366 8.319,12.082 8.319,12.082 0,0 0.594,4.754 -25.551,7.13 0,0 -20.004,0.413 -31.293,-2.269 -11.29,-2.682 -25.154,-1.097 -25.154,-1.097 0,0 -2.179,0.593 0.793,3.169 0,0 34.264,39.414 66.944,50.504 0,0 23.173,11.092 -5.149,24.56 0,0 -32.482,13.072 -56.25,12.874"
       style="fill:#fde545;fill-opacity:1;fill-rule:nonzero;stroke:none"
       transform="matrix(1.3333333,0,0,-1.3333333,266.70947,253.19387)"
       clip-path="url(#clipPath24)" />
    <path
       id="path25"
       d="m 0,0 c 0,0 -14.723,-1.585 -13.006,-7.329 1.717,-5.743 11.224,-7.328 11.224,-7.328 0,0 25.748,-6.932 41.593,-9.904 15.844,-2.97 7.328,-9.308 7.328,-9.308 0,0 -39.613,-38.424 -62.785,-52.882 -23.174,-14.459 33.67,-17.43 33.67,-17.43 0,0 38.226,0.594 49.317,-2.772 11.092,-3.367 8.319,12.081 8.319,12.081 0,0 0.594,4.754 -25.55,7.131 0,0 -20.005,0.412 -31.294,-2.27 -11.29,-2.682 -25.154,-1.097 -25.154,-1.097 0,0 -2.179,0.593 0.793,3.169 0,0 34.264,39.414 66.944,50.505 0,0 23.173,11.091 -5.149,24.56 0,0 -32.482,13.071 -56.25,12.874"
       style="fill:#f7975a;fill-opacity:1;fill-rule:nonzero;stroke:none"
       transform="matrix(1.3333333,0,0,-1.3333333,260.47773,244.74213)"
       clip-path="url(#clipPath26)" />
    <path
       id="path27"
       d="m 0,0 c 0,0 -16.813,-3.564 -16.726,-18.222 0.089,-14.656 2.861,-22.182 17.716,-30.699 14.855,-8.517 39.018,8.121 39.018,8.121 0,0 31.096,17.033 14.261,30.699 -16.835,13.666 -20.401,-2.575 -18.024,-5.744 2.377,-3.169 3.776,-6.315 -1.281,-10.188 -5.057,-3.874 -16.743,-10.409 -25.259,-10.608 -8.517,-0.198 -22.976,1.88 -19.807,22.232 0,0 2.179,8.666 10.102,14.409"
       style="fill:#fde545;fill-opacity:1;fill-rule:nonzero;stroke:none"
       transform="matrix(1.3333333,0,0,-1.3333333,389.914,320.3736)"
       clip-path="url(#clipPath28)" />
    <path
       id="path29"
       d="m 0,0 c 0,0 -16.813,-3.565 -16.725,-18.222 0.088,-14.656 2.861,-22.182 17.715,-30.699 14.855,-8.517 39.018,8.12 39.018,8.12 0,0 31.096,17.033 14.261,30.699 -16.835,13.667 -20.4,-2.574 -18.024,-5.743 2.377,-3.169 3.776,-6.316 -1.281,-10.189 -5.057,-3.873 -16.742,-10.409 -25.259,-10.608 -8.517,-0.198 -22.975,1.88 -19.806,22.232 0,0 2.179,8.666 10.101,14.41"
       style="fill:#f7975a;fill-opacity:1;fill-rule:nonzero;stroke:none"
       transform="matrix(1.3333333,0,0,-1.3333333,384.06827,313.93213)"
       clip-path="url(#clipPath30)" />
    <path
       id="path31"
       d="m 0,0 c 0,0 -22.315,21.522 -53.873,0.66 -31.558,-20.862 14.525,-55.664 14.525,-55.664 0,0 27.993,-18.939 30.105,-39.67 2.113,-20.73 -23.239,-23.635 -31.425,-23.239 -8.187,0.396 -11.488,1.717 -11.488,1.717 0,0 -28.708,7.526 -32.114,-10.696 -3.405,-18.221 19.174,-20.73 19.174,-20.73 0,0 18.486,-3.433 39.348,16.241 20.862,19.674 15.317,14.656 15.317,14.656 0,0 22.843,19.933 2.773,43.439 -20.071,23.507 -37.091,42.389 -38.615,48.33 -1.526,5.941 -2.681,22.051 16.118,23.371 0,0 8.896,1.189 16.819,-10.035 C -5.414,-22.844 5.33,-3.88 0,0"
       style="fill:#fde545;fill-opacity:1;fill-rule:nonzero;stroke:none"
       transform="matrix(1.3333333,0,0,-1.3333333,535.3872,263.93213)"
       clip-path="url(#clipPath32)" />
    <path
       id="path33"
       d="m 0,0 c 0,0 -22.315,21.522 -53.873,0.66 -31.558,-20.862 14.525,-55.664 14.525,-55.664 0,0 27.993,-18.939 30.105,-39.669 2.113,-20.73 -23.239,-23.636 -31.426,-23.239 -8.186,0.395 -11.487,1.716 -11.487,1.716 0,0 -28.708,7.526 -32.114,-10.696 -3.405,-18.221 19.174,-20.73 19.174,-20.73 0,0 18.485,-3.433 39.348,16.241 20.862,19.674 15.316,14.656 15.316,14.656 0,0 22.844,19.933 2.773,43.439 -20.07,23.507 -37.09,42.389 -38.615,48.33 -1.525,5.942 -2.681,22.051 16.119,23.372 0,0 8.896,1.188 16.819,-10.035 C -5.414,-22.843 5.33,-3.88 0,0"
       style="fill:#f7975a;fill-opacity:1;fill-rule:nonzero;stroke:none"
       transform="matrix(1.3333333,0,0,-1.3333333,530.634,256.89053)"
       clip-path="url(#clipPath34)" />
    <path
       id="path35"
       d="m 0,0 c 0,0 -21.49,-1.287 -23.668,-15.448 -2.179,-14.162 -1.783,-25.253 5.05,-34.661 6.833,-9.409 13.964,-13.271 27.333,-11.587 13.369,1.683 21.886,12.478 21.886,12.478 0,0 14.26,19.311 -10.201,38.226 0,0 -7.823,10.497 -20.4,10.992"
       style="fill:#fde545;fill-opacity:1;fill-rule:nonzero;stroke:none"
       transform="matrix(1.3333333,0,0,-1.3333333,570.41853,301.7512)"
       clip-path="url(#clipPath36)" />
    <path
       id="path37"
       d="m 0,0 c 0,0 -16.043,-3.169 -16.835,-15.548 -0.792,-12.379 -1.089,-17.528 2.278,-23.471 3.367,-5.941 11.586,-6.535 17.627,-6.833 6.041,-0.296 22.084,6.141 22.48,17.628 0.396,11.488 -4.852,20.203 -9.21,23.273 C 11.983,-1.882 9.705,0.693 0,0"
       style="fill:#ffffff;fill-opacity:1;fill-rule:nonzero;stroke:none"
       transform="matrix(1.3333333,0,0,-1.3333333,565.7968,307.0324)"
       clip-path="url(#clipPath38)" />
    <path
       id="path39"
       d="m 0,0 c 0,0 -21.49,-1.287 -23.668,-15.448 -2.179,-14.162 -1.783,-25.253 5.05,-34.661 6.833,-9.409 13.964,-13.271 27.333,-11.587 13.369,1.683 21.886,12.478 21.886,12.478 0,0 14.26,19.311 -10.201,38.226 0,0 -7.823,10.497 -20.4,10.992"
       style="fill:#f7975a;fill-opacity:1;fill-rule:nonzero;stroke:none"
       transform="matrix(1.3333333,0,0,-1.3333333,563.24787,292.80587)"
       clip-path="url(#clipPath40)" />
    <path
       id="path41"
       d="m 0,0 c 0,0 -16.043,-3.169 -16.835,-15.548 -0.792,-12.379 -1.089,-17.528 2.278,-23.471 3.367,-5.941 11.586,-6.535 17.627,-6.833 6.041,-0.296 22.084,6.141 22.48,17.628 0.396,11.488 -4.852,20.203 -9.21,23.273 C 11.983,-1.882 9.705,0.693 0,0"
       style="fill:#ffffff;fill-opacity:1;fill-rule:nonzero;stroke:none"
       transform="matrix(1.3333333,0,0,-1.3333333,558.62613,298.08707)"
       clip-path="url(#clipPath42)" />
    <path
       id="path43"
       d="m 0,0 c 0,0 -6.638,13.731 -3.849,24.238 2.788,10.508 7.98,14.114 11.05,14.88 3.07,0.768 9.945,2.966 13.765,1.031 6.388,-3.234 12.587,-9.133 12.587,-9.133 l 2.003,-4.201 1.04,-3.214 c 0,0 -14.08,14.106 -18.222,14.799 -4.142,0.694 -11.866,-1.881 -11.866,-1.881 0,0 -4.853,-3.566 -5.249,-6.537 0,0 -3.268,-7.427 -2.674,-9.605 C -0.82,18.198 -0.745,7.78 1.434,3.72 3.612,-0.34 2.448,-1.562 2.448,-1.562 Z"
       style="fill:#fde545;fill-opacity:1;fill-rule:nonzero;stroke:none"
       transform="matrix(1.3333333,0,0,-1.3333333,542.42307,353.9088)"
       clip-path="url(#clipPath44)" />
    <path
       id="path45"
       d="m 0,0 c 0,0 -37.632,12.016 -69.189,4.621 0,0 -13.469,-4.225 1.98,-13.468 0,0 6.074,-4.357 0.528,-23.371 0,0 -15.713,-39.217 -3.037,-61.663 0,0 4.754,-8.319 8.055,4.489 3.301,12.808 0.528,35.123 0.528,35.123 0,0 -3.697,14.525 18.354,6.602 0,0 13.336,-9.11 22.315,-3.037 8.978,6.074 -2.641,13.072 -2.641,13.072 0,0 -8.715,4.276 -36.18,0.686 0,0 -2.244,-0.818 -0.924,3.935 1.321,4.754 0.264,23.108 0.264,23.108 0,0 -0.396,3.3 14.789,0.528 0,0 6.602,-2.112 13.468,-11.487 6.866,-9.375 54.401,-5.414 54.401,-5.414 0,0 2.773,0.396 2.509,-2.641 -0.264,-3.037 -8.583,-66.152 7.658,-79.356 0,0 6.074,-5.151 5.414,3.697 -0.661,8.847 -0.528,15.976 -4.886,22.974 -4.357,6.998 -8.582,32.615 -3.961,51.365 0,0 0.792,5.809 8.186,5.017 7.395,-0.793 12.412,-0.793 15.713,1.321 3.302,2.112 8.979,15.712 -2.905,19.805 C 38.556,0 18.717,-4.406 0,0"
       style="fill:#fde545;fill-opacity:1;fill-rule:nonzero;stroke:none"
       transform="matrix(1.3333333,0,0,-1.3333333,728.7648,260.0936)"
       clip-path="url(#clipPath46)" />
    <path
       id="path47"
       d="m 0,0 c 0,0 -37.631,12.016 -69.189,4.622 0,0 -13.468,-4.226 1.981,-13.469 0,0 6.073,-4.357 0.527,-23.371 0,0 -15.713,-39.216 -3.036,-61.663 0,0 4.753,-8.318 8.054,4.489 3.301,12.809 0.528,35.123 0.528,35.123 0,0 -3.697,14.525 18.354,6.603 0,0 13.336,-9.111 22.315,-3.037 8.979,6.073 -2.641,13.071 -2.641,13.071 0,0 -8.715,4.277 -36.179,0.686 0,0 -2.245,-0.818 -0.924,3.936 1.32,4.753 0.264,23.108 0.264,23.108 0,0 -0.396,3.3 14.788,0.527 0,0 6.602,-2.112 13.469,-11.487 6.865,-9.375 54.4,-5.413 54.4,-5.413 0,0 2.773,0.395 2.509,-2.642 -0.264,-3.037 -8.583,-66.152 7.658,-79.356 0,0 6.074,-5.15 5.414,3.697 -0.66,8.847 -0.528,15.976 -4.885,22.975 -4.358,6.998 -8.583,32.614 -3.962,51.364 0,0 0.793,5.809 8.187,5.017 7.394,-0.792 12.412,-0.792 15.713,1.321 3.301,2.113 8.979,15.712 -2.905,19.806 C 38.556,0 18.718,-4.406 0,0"
       style="fill:#f7975a;fill-opacity:1;fill-rule:nonzero;stroke:none"
       transform="matrix(1.3333333,0,0,-1.3333333,722.1808,252.48947)"
       clip-path="url(#clipPath48)" />
    <path
       id="path49"
       d="m 0,0 c 0,0 -8.706,1.602 -11.206,-5.289 -2.5,-6.891 -2.387,-12.223 -2.387,-12.223 0,0 -0.613,-10.234 2.72,-13.451 C -7.54,-34.18 0,-33.346 0,-33.346 c 0,0 13.331,1.666 14.479,11 C 15.627,-13.013 4.706,-1.155 0,0"
       style="fill:#ffe253;fill-opacity:1;fill-rule:nonzero;stroke:none"
       transform="matrix(1.3333333,0,0,-1.3333333,564.77853,306.88013)"
       clip-path="url(#clipPath50)" />
  </g>
</svg>
